<svg xmlns="http://www.w3.org/2000/svg" width="92.939" height="92.937" viewBox="0 0 92.939 92.937"><defs><style>.a{fill:#e64c3c;}.b{fill:#c03a2b;}.c{fill:#f29c1f;}.d{fill:#f0c419;}.e{fill:#2980ba;}.f{fill:#f3d55b;}.g{fill:#3b97d3;}</style></defs><g transform="translate(0 0)"><path class="a" d="M78.915,32.775V23H2V75.879a3.214,3.214,0,0,0,3.2,3.2H59.686Z" transform="translate(1.205 13.853)"/><g transform="translate(3.205 38.455)"><path class="b" d="M2,24H78.915v4.807H2Z" transform="translate(-2 -24)"/></g><path class="c" d="M66.458,9.294A22.608,22.608,0,0,0,73.108,5l1.6,6.41,6.41-1.6c-1.6,9.614-9.614,12.819-16.024,12.819L41.06,26.632,17.024,22.626C10.614,22.626,2.6,19.422,1,9.807l6.41,1.6L9.012,5a22.557,22.557,0,0,0,6.666,4.294L41.06,14.1Z" transform="translate(0.602 3.01)"/><path class="d" d="M35.635,16.023S32.59,2.212,19.063.036a3.11,3.11,0,0,0-2.176.481c-2.139,1.389-6.62,5.386-6.879,14.628a3.147,3.147,0,0,0,.455,1.723c1.362,2.226,6.073,7.983,18.748,8.924Z" transform="translate(6.028 -0.001)"/><path class="d" d="M26.007,16.023S29.052,2.212,42.579.036a3.1,3.1,0,0,1,2.174.481c2.141,1.389,6.621,5.386,6.879,14.628a3.145,3.145,0,0,1-.453,1.723c-1.364,2.229-6.089,8-18.807,8.927Z" transform="translate(15.666 -0.001)"/><path class="a" d="M3.2,16H80.12a3.2,3.2,0,0,1,3.2,3.2v8.012a1.6,1.6,0,0,1-1.6,1.6H1.6a1.6,1.6,0,0,1-1.6-1.6V19.2A3.2,3.2,0,0,1,3.2,16Z" transform="translate(0 9.636)"/><path class="d" d="M21,16H37.024V28.819H21Z" transform="translate(12.65 9.636)"/><path class="c" d="M22,24H34.819V78.481H22Z" transform="translate(13.253 14.455)"/><path class="e" d="M36,42H68.048V64.434a3.2,3.2,0,0,1-3.2,3.2H39.2a3.2,3.2,0,0,1-3.2-3.2Z" transform="translate(21.686 25.298)"/><path class="d" d="M52.627,37.614s-1.413-7.289-10.869-9.529a3.222,3.222,0,0,0-3.344,1.263,17.884,17.884,0,0,0-3.391,8.238,3.262,3.262,0,0,0,.961,2.735A14.853,14.853,0,0,0,47.82,43.959Z" transform="translate(21.083 16.866)"/><path class="d" d="M46,37.614s1.413-7.289,10.869-9.529a3.222,3.222,0,0,1,3.344,1.263A17.884,17.884,0,0,1,63.6,37.585a3.262,3.262,0,0,1-.961,2.735,14.853,14.853,0,0,1-11.835,3.639Z" transform="translate(27.71 16.866)"/><path class="c" d="M43,44h9.614V66.434H43Z" transform="translate(25.903 26.503)"/><path class="c" d="M26.152,15.387a1.6,1.6,0,0,1-1.388-.8c-.715-1.232-3.307-5.339-6.669-6.464a1.6,1.6,0,1,1,1.016-3.045c4.306,1.442,7.326,6,8.425,7.893a1.6,1.6,0,0,1-1.384,2.4Z" transform="translate(10.24 3.006)"/><path class="c" d="M29.89,15.383a1.6,1.6,0,0,1-1.384-2.4c1.1-1.891,4.126-6.456,8.425-7.9a1.6,1.6,0,0,1,1.016,3.045c-3.365,1.122-5.955,5.232-6.669,6.464A1.6,1.6,0,0,1,29.89,15.383Z" transform="translate(17.042 3.01)"/><path class="f" d="M25.2,10h6.41a3.2,3.2,0,0,1,3.2,3.2v6.41H22V13.2A3.2,3.2,0,0,1,25.2,10Z" transform="translate(13.253 6.022)"/><path class="f" d="M46.2,34h3.2a3.2,3.2,0,0,1,3.2,3.2v3.2H43V37.2A3.2,3.2,0,0,1,46.2,34Z" transform="translate(25.903 20.479)"/><path class="g" d="M37.2,38H69.253a3.2,3.2,0,0,1,3.2,3.2v4.807a1.6,1.6,0,0,1-1.6,1.6H35.6a1.6,1.6,0,0,1-1.6-1.6V41.2A3.2,3.2,0,0,1,37.2,38Z" transform="translate(20.481 22.889)"/><path class="d" d="M42,38H54.819v9.614H42Z" transform="translate(25.301 22.889)"/></g></svg>